{"asset":{"generator":"Khronos glTF Spline I/O v0.0.1","version":"2.0"},"scenes":[{"nodes":[0]}],"nodes":[{"name":"","children":[1,2,3]},{"name":"Point Light","translation":[363.3295723144546,383.66934045201344,266],"extensions":{"KHR_lights_punctual":{"light":0}}},{"name":"BG","matrix":[2.044091906860815,0,0,0,0,2.044091906860815,0,0,0,0,2.044091906860815,0,29.112440872291582,8.240765189246558,-1144.869136506756,1],"mesh":0},{"name":"personal","camera":0,"translation":[0,6.123233995736766e-14,1000],"rotation":[-3.061616997868383e-17,0,0,1]}],"cameras":[{"type":"orthographic","orthographic":{"xmag":1475,"ymag":716,"zfar":500000,"znear":-500000}}],"meshes":[{"primitives":[{"attributes":{"POSITION":1,"NORMAL":2,"TEXCOORD_0":3},"indices":0}]}],"buffers":[{"uri":"data:application/octet-stream;base64,","byteLength":44000}],"bufferViews":[{"buffer":0,"byteOffset":0,"byteLength":12000,"target":34963},{"buffer":0,"byteOffset":12000,"byteLength":12000,"target":34962},{"buffer":0,"byteOffset":24000,"byteLength":12000,"target":34962},{"buffer":0,"byteOffset":36000,"byteLength":8000,"target":34962}],"accessors":[{"bufferView":0,"byteOffset":0,"componentType":5125,"count":3000,"type":"SCALAR","min":[0],"max":[3]},{"bufferView":1,"byteOffset":0,"componentType":5126,"count":1000,"type":"VEC3","min":[-477.21923828125,-477.21923828125,0],"max":[477.21923828125,477.21923828125,0]},{"bufferView":2,"byteOffset":0,"componentType":5126,"count":1000,"type":"VEC3","min":[0,0,0],"max":[0,0,1]},{"bufferView":3,"byteOffset":0,"componentType":5126,"count":1000,"type":"VEC2","min":[0,0],"max":[1,1]}],"extensions":{"KHR_lights_punctual":{"lights":[{"type":"point","name":"Point Light","color":[1,1,1],"intensity":1,"range":2000}]}},"extensionsUsed":["KHR_lights_punctual"]}